<svg xmlns="http://www.w3.org/2000/svg" viewBox="0 0 64 64" width="64" height="64">
	<circle  fill="#fff" cx="32" cy="32" r="28.2"/>
	<path fill="#666" d="M52.7 40.7c4.8-11.5-.6-24.6-12-29.5-6.4-2.7-13.8-2.2-19.9 1.3L18 7.6c8.7-5 19.4-4.9 28 .1C58.6 15 63.5 30.6 57.6 43.6l3.8 2.2L49.7 52l-.5-13.3 3.5 2z" />
	<path fill="#1d83d4" d="M35.1 47.6h-6.2v-24H21v-5.1h22v5.1h-7.9v24z" />
	<path fill="#888" d="M11.3 23.3c-4.8 11.5.6 24.6 12 29.5 6.5 2.7 13.8 2.3 19.9-1.2l2.8 4.9c-8.7 5-19.4 4.9-28-.1C5.3 49.1.5 33.5 6.4 20.4l-3.8-2.2L14.3 12l.5 13.3-3.5-2z" />
</svg>
