<svg viewBox="0 0 512 512" xmlns="http://www.w3.org/2000/svg" width="64" height="64">
  <g clip-rule="evenodd" fill-rule="evenodd">
    <path d="M228.792 102.892c73.312 6.831 135.137 53.233 163.908 117.637 76.871-13.505 86.057-75.347 86.057-75.347-56.46 28.23-122.65-17.483-18.123-41.014 36.882-8.303 60.046-63.41 21.461-94.149-11.446 60.849-102.537 23.565-134.013 28.334-21.74 3.294-47.572 13.874-61.474 41.785-11.05-15.168-14.985-32.032-2.278-50.627-44.963-5.089-67.681 41.052-55.538 73.381z" fill="#ffc144"/>
    <path d="M392.7 220.53c-28.771-64.404-90.596-110.805-163.908-117.637a202.643 202.643 0 00-18.791-.871c-110.457 0-200 89.543-200 200s89.543 200 200 200c54.101 0 103.185-21.481 139.188-56.38 20.863-20.224 37.334-44.953 47.843-72.618a198.52 198.52 0 009.995-36.446 201.282 201.282 0 002.974-34.556c0-11.561-.981-22.893-2.864-33.917A198.592 198.592 0 00392.7 220.53zM210 172.021c71.797 0 130 58.203 130 130s-58.203 130-130 130-130-58.203-130-130c0-71.796 58.204-130 130-130z" fill="#6d91ac"/>
    <path d="M340 302.021c0-71.797-58.203-130-130-130s-130 58.203-130 130 58.203 130 130 130 130-58.203 130-130zm-130-90c49.706 0 90 40.294 90 90s-40.294 90-90 90-90-40.294-90-90c0-49.705 40.295-90 90-90z" fill="#dad0d3"/>
    <circle cx="210" cy="302.021" fill="#fff" r="90"/>
    <path d="M459.948 232.788c-5.266 27.994-27.392 35.212-52.812 35.316A201.329 201.329 0 01410 302.021c0 11.785-1.019 23.331-2.974 34.556 8.071-3.433 18.44-6.709 31.461-9.64 36.882-8.303 60.046-63.409 21.461-94.149z" fill="#ffc144"/>
    <path d="M456.61 367.952c-21.912 10.956-45.284 10.771-59.579 5.072-10.509 27.666-26.979 52.395-47.843 72.618 96.592-4.754 107.422-77.69 107.422-77.69zM371.514 99.628c-28.822-8.038-56.006.145-70.142 24.438 29.011 14.926 53.898 36.737 72.503 63.274 5.716-8.334 5.634-17.545-2.103-20.298-50.366-21.955-.258-67.414-.258-67.414z" fill="#ff9346"/>
  </g>
  <path d="M488.326 2.199a10.004 10.004 0 00-9.718-1.552 10.003 10.003 0 00-6.342 7.524c-6.009 31.942-40.77 29.53-85.589 23.059-16.026-2.314-29.865-4.313-40.094-2.764-18.457 2.797-42.166 10.717-59.103 31.795-2.397-8.547-.681-16.642 5.104-25.107a10 10 0 00-7.131-15.579c-22.144-2.506-41.714 5.382-55.124 22.209-11.279 14.156-16.387 32.826-14.325 50.328a213.845 213.845 0 00-6.004-.091c-115.795 0-210 94.205-210 210s94.205 210 210 210c55.337 0 105.733-21.525 143.284-56.628 51.597-3.488 79.549-26.054 93.939-44.521 16.022-20.563 19.151-40.607 19.277-41.45a10.001 10.001 0 00-14.364-10.415c-14.872 7.436-30.5 8.926-42.157 7.127a208.252 208.252 0 005.831-22.28c7.027-2.614 15.359-5.02 24.872-7.162 22.772-5.126 41.872-25.125 47.528-49.765 5.478-23.859-2.553-46.443-22.031-61.961a10.001 10.001 0 00-16.06 5.972c-3.177 16.891-13.732 25.153-34.824 26.836a208.093 208.093 0 00-8.867-30.01c35.671-9.261 55.737-28.922 66.499-44.511 12.949-18.758 15.613-35.882 15.721-36.602a10 10 0 00-14.363-10.415c-23.515 11.757-48.059 8.607-56.736 1.813-1.058-.827-2.135-1.982-2.005-2.563.721-3.199 10.619-13.31 47.286-21.564 22.771-5.126 41.872-25.125 47.527-49.764 5.478-23.858-2.552-46.442-22.031-61.959zM20 302.021c0-104.767 85.233-190 190-190s190.001 85.233 190.001 190-85.234 190-190.001 190-190-85.234-190-190zm319.447-165.25a210.895 210.895 0 00-23.363-15.919c8.92-9.652 21.449-14.597 35.93-14.208-5.878 8.073-11.689 18.749-12.567 30.127zm100.94 247.562c-8.197 16.309-26.423 39.165-65.766 47.922a210.224 210.224 0 0028.202-47.089c11.542 2.504 24.728 2.175 37.564-.833zm23.475-132.648c7.424 11.653 6.491 23.646 4.855 30.769-3.909 17.029-17.243 31.31-32.429 34.728-6.16 1.387-11.908 2.89-17.215 4.495.604-6.473.927-13.027.927-19.655 0-8.286-.498-16.458-1.437-24.496 21.903-2.217 37.067-10.865 45.299-25.841zm27.002-191.999c-3.908 17.028-17.243 31.309-32.427 34.727-37.848 8.521-58.844 20.862-62.405 36.684-1.887 8.38 1.462 16.654 9.186 22.702 11.55 9.043 33.681 13.519 57.409 7.846-8.016 16.135-25.818 38.559-64.31 47.518a209.988 209.988 0 00-12.805-22.309c2.621-6.104 3.115-12.323 1.284-17.639-1.84-5.342-5.839-9.396-11.285-11.451-9.601-4.235-14.979-9.469-15.991-15.559-2.128-12.808 13.191-30.125 18.713-35.17a9.999 9.999 0 00-4.032-17.039c-30.779-8.583-59.245-.403-76.261 21.351a208.298 208.298 0 00-61.417-17.657c-2.802-13.225.726-28.495 9.45-39.442 5.822-7.306 13.441-12.084 22.191-14.068-4.364 15.022-.908 30.38 10.36 45.849a10.003 10.003 0 0017.034-1.431c12.544-25.185 36.301-33.671 54.021-36.356 7.305-1.104 20.388.783 34.238 2.783 20.205 2.919 43.104 6.226 62.945 2.987 18.654-3.046 31.795-11.458 39.255-25.081 7.413 11.647 6.482 23.635 4.847 30.755z"/>
  <path d="M257.742 170.38c-5.193-1.886-10.928.8-12.811 5.99-1.884 5.192.799 10.928 5.99 12.811 47.3 17.157 79.079 62.504 79.079 112.84 0 66.168-53.832 120-120 120s-120-53.832-120-120c0-50.336 31.779-95.683 79.079-112.84 5.191-1.883 7.874-7.618 5.99-12.811-1.883-5.191-7.616-7.873-12.811-5.99C107.076 190.396 70 243.299 70 302.021c0 77.196 62.804 140 140 140s140-62.804 140-140c0-58.723-37.075-111.625-92.258-131.641z"/>
  <path d="M110 302.021c0 55.141 44.859 100 100 100s100-44.859 100-100-44.859-100-100-100-100 44.859-100 100zm180 0c0 44.112-35.888 80-80 80s-80-35.888-80-80 35.888-80 80-80 80 35.888 80 80zM210 182.022c5.522 0 10-4.478 10-10s-4.478-10-10-10h-.007c-5.522 0-9.996 4.478-9.996 10s4.481 10 10.003 10z"/>
  <g>
    <path d="M149.25 264.059a3.75 3.75 0 003.75-3.75V243h17.309a3.75 3.75 0 000-7.5H149.25a3.75 3.75 0 00-3.75 3.75v21.059a3.75 3.75 0 003.75 3.75zM269.75 235.5h-21.059a3.75 3.75 0 000 7.5H266v17.309a3.75 3.75 0 007.5 0V239.25a3.75 3.75 0 00-3.75-3.75zM269.75 334.941a3.75 3.75 0 00-3.75 3.75V356h-17.309a3.75 3.75 0 000 7.5h21.059a3.75 3.75 0 003.75-3.75v-21.059a3.75 3.75 0 00-3.75-3.75zM170.309 356H153v-17.309a3.75 3.75 0 00-7.5 0v21.059a3.75 3.75 0 003.75 3.75h21.059a3.75 3.75 0 000-7.5zM250.415 283.345v-23.683a2.128 2.128 0 00-2.13-2.127h-77.57c-1.177 0-2.13.953-2.13 2.127v23.683c0 1.177.953 2.13 2.13 2.13h11.31a2.128 2.128 0 002.128-2.13v-8.113a2.13 2.13 0 012.13-2.13h13.302c1.178 0 2.13.953 2.13 2.13v58.535c0 1.178-.952 2.13-2.13 2.13h-5.817c-1.178 0-2.13.953-2.13 2.13v11.31c0 1.176.952 2.128 2.13 2.128h31.465c1.177 0 2.13-.952 2.13-2.127v-11.31c0-1.178-.953-2.13-2.13-2.13h-5.818a2.129 2.129 0 01-2.13-2.13v-58.535c0-1.178.953-2.13 2.13-2.13h13.303a2.13 2.13 0 012.13 2.13v8.112c0 1.178.952 2.13 2.127 2.13h11.31c1.178 0 2.13-.952 2.13-2.13z"/>
  </g>
</svg>
